<svg id="Layer_1" data-name="Layer 1" xmlns="http://www.w3.org/2000/svg" viewBox="0 0 879.636 513.136">
  <g>
    <g>
      <path d="M79.3,7.848v6.079H51.414A11.143,11.143,0,0,0,40.272,25.069V224.442a11.142,11.142,0,0,0,11.142,11.142H200.258A11.141,11.141,0,0,0,211.4,224.442V25.069a11.142,11.142,0,0,0-11.142-11.142H172.377V7.848A7.848,7.848,0,0,0,164.53,0H87.142A7.848,7.848,0,0,0,79.3,7.848Z" fill="#c1d8ed"></path>
      <rect x="24.297" y="49.496" width="203.079" height="150.518" rx="5.015" transform="translate(1.081 250.591) rotate(-90)" fill="#fff"></rect>
      <rect x="113.476" y="-13.343" width="24.721" height="73.117" rx="3.41" transform="translate(102.62 149.052) rotate(-90)" fill="#AAA9AD"></rect>
    </g>
    <g>
      <path d="M82.473,101.786h-16.4a6.3,6.3,0,0,1-6.3-6.3v-16.4a6.3,6.3,0,0,1,6.3-6.3h16.4a6.3,6.3,0,0,1,6.3,6.3V95.49A6.3,6.3,0,0,1,82.473,101.786Zm-16.4-25.807a3.11,3.11,0,0,0-3.106,3.106V95.49A3.109,3.109,0,0,0,66.069,98.6h16.4a3.109,3.109,0,0,0,3.106-3.106v-16.4a3.11,3.11,0,0,0-3.106-3.106Z" fill="#dee8f5"></path>
      <path d="M82.473,138.635h-16.4a6.3,6.3,0,0,1-6.3-6.3v-16.4a6.3,6.3,0,0,1,6.3-6.3h16.4a6.3,6.3,0,0,1,6.3,6.3v16.4A6.3,6.3,0,0,1,82.473,138.635Zm-16.4-25.806a3.109,3.109,0,0,0-3.106,3.106v16.4a3.109,3.109,0,0,0,3.106,3.106h16.4a3.109,3.109,0,0,0,3.106-3.106v-16.4a3.109,3.109,0,0,0-3.106-3.106Z" fill="#dee8f5"></path>
      <path d="M82.473,175.485h-16.4a6.3,6.3,0,0,1-6.3-6.3v-16.4a6.3,6.3,0,0,1,6.3-6.3h16.4a6.3,6.3,0,0,1,6.3,6.3v16.4A6.3,6.3,0,0,1,82.473,175.485Zm-16.4-25.807a3.109,3.109,0,0,0-3.106,3.106v16.4a3.109,3.109,0,0,0,3.106,3.106h16.4a3.109,3.109,0,0,0,3.106-3.106v-16.4a3.109,3.109,0,0,0-3.106-3.106Z" fill="#dee8f5"></path>
      <path d="M70.85,93.618a1.431,1.431,0,0,1-1.081-.49L64.9,87.562a1.436,1.436,0,0,1,2.161-1.891l3.945,4.51,10.634-8.89a1.436,1.436,0,0,1,1.842,2.2L71.77,93.284A1.431,1.431,0,0,1,70.85,93.618Z" fill="#262626"></path>
      <path d="M70.85,130.468a1.434,1.434,0,0,1-1.081-.491L64.9,124.411a1.436,1.436,0,0,1,2.161-1.891l3.945,4.51,10.634-8.89a1.436,1.436,0,0,1,1.842,2.2l-11.712,9.79A1.427,1.427,0,0,1,70.85,130.468Z" fill="#262626"></path>
      <path d="M70.85,167.317a1.434,1.434,0,0,1-1.081-.491L64.9,161.26a1.435,1.435,0,1,1,2.161-1.89l3.945,4.509,10.634-8.89a1.436,1.436,0,0,1,1.842,2.2l-11.712,9.79A1.427,1.427,0,0,1,70.85,167.317Z" fill="#262626"></path>
      <g opacity="0.62">
        <rect x="141.135" y="39.972" width="3.824" height="94.631" rx="1.912" transform="translate(55.759 230.334) rotate(-90)" fill="#dee8f5"></rect>
        <rect x="141.135" y="28.25" width="3.824" height="94.631" rx="1.912" transform="translate(67.481 218.612) rotate(-90)" fill="#dee8f5"></rect>
        <rect x="133.158" y="59.671" width="3.824" height="78.678" rx="1.912" transform="translate(36.061 234.081) rotate(-90)" fill="#dee8f5"></rect>
      </g>
      <g opacity="0.62">
        <rect x="141.135" y="76.822" width="3.824" height="94.631" rx="1.912" transform="translate(18.91 267.184) rotate(-90)" fill="#dee8f5"></rect>
        <rect x="141.135" y="65.099" width="3.824" height="94.631" rx="1.912" transform="translate(30.632 255.461) rotate(-90)" fill="#dee8f5"></rect>
        <rect x="133.158" y="96.52" width="3.824" height="78.678" rx="1.912" transform="translate(-0.788 270.93) rotate(-90)" fill="#dee8f5"></rect>
      </g>
      <g opacity="0.62">
        <rect x="141.135" y="113.671" width="3.824" height="94.631" rx="1.912" transform="translate(-17.939 304.033) rotate(-90)" fill="#dee8f5"></rect>
        <rect x="141.135" y="101.948" width="3.824" height="94.631" rx="1.912" transform="translate(-6.217 292.31) rotate(-90)" fill="#dee8f5"></rect>
        <rect x="133.158" y="133.369" width="3.824" height="78.678" rx="1.912" transform="translate(-37.637 307.779) rotate(-90)" fill="#dee8f5"></rect>
      </g>
    </g>
    <rect x="123.573" y="6.764" width="4.526" height="81.959" rx="2.263" transform="translate(78.092 173.58) rotate(-90)" fill="#d7e8f4"></rect>
    <rect x="123.573" y="26.358" width="4.526" height="63.079" rx="2.263" transform="translate(67.938 183.734) rotate(-90)" fill="#d7e8f4"></rect>
    <path d="M172.075,195.707c-.382-1.79-.494-3.669-1.782-5.067-.7-.76-1.5-1.4-2.593-1.038-1.332.444-1.393,1.725-1.511,2.922a26.458,26.458,0,0,0,.946,9.964c.839,2.882,2.157,6.37,4.508,8.37a4.437,4.437,0,0,0,6.679-.925,7.922,7.922,0,0,0,.815-7.453c-.739-1.931-2.923-5.032-5.355-4.649-2.643.416-2.756,3.867-.817,5.2,3.22,2.208,6.258-1.192,8.136-3.457.4-.477.6-.941,1.021-.081.136.279.177.6.316.888a1.992,1.992,0,0,0,1.381,1.156,4.886,4.886,0,0,0,2.533-.5l3.375-1.172c.906-.314.517-1.764-.4-1.446-1.265.439-2.529.883-3.8,1.318-.594.2-1.327.623-1.748-.03-.285-.442-.309-1.019-.611-1.47a1.725,1.725,0,0,0-1.7-.835c-.9.161-1.484,1.182-2.016,1.832a9.849,9.849,0,0,1-2.514,2.424c-1.091.634-2.92.914-3.68-.407a1.31,1.31,0,0,1,.038-1.426c.486-.689,1.131-.523,1.79-.126a6.272,6.272,0,0,1,2.089,2.161,6.984,6.984,0,0,1,.7,5.734c-.746,2.2-3.058,3.942-5.175,2.213-1.764-1.441-2.814-3.975-3.577-6.055a25.284,25.284,0,0,1-1.513-7.162,25.565,25.565,0,0,1,.076-4.057c.063-.641.023-1.941,1.056-1.323a3.474,3.474,0,0,1,.7.741c.862,1.082.9,2.871,1.18,4.164.2.944,1.648.544,1.446-.4Z" fill="#262626"></path>
  </g>
  <g>
    <g>
      <path d="M639.406,219.719s19.506-4.877,36.226-4.877c9.089,0,16.21.425,20.815.813a6.07,6.07,0,0,1,5.538,6.492l-.578,8.021Z" fill="#c1d8ed"></path>
      <polygon points="49.148 460.572 810.78 460.572 779.431 353.289 98.61 353.289 49.148 460.572" fill="#c1d8ed"></polygon>
      <g opacity="0.78">
        <polygon points="49.148 460.572 810.78 460.572 779.431 353.289 98.61 353.289 49.148 460.572" fill="#0f1011"></polygon>
      </g>
      <path d="M876.083,429.485c-1.6,7.9-3.916,14.385-7.014,18.729-21.364,29.731-76.162,28.805-76.162,28.805a156.116,156.116,0,0,0-2.207-31.76c-5.626-33.363-24.64-80.755-87.2-78.547-63.378,2.243-79.935,53.017-84.1,84.885a143,143,0,0,0-1.14,25.422H245.381a161.327,161.327,0,0,0-2.279-21.15c-5.7-34.217-25.672-97.382-95.246-91.258-62.845,5.554-74.488,59.5-75.877,90.582a136.4,136.4,0,0,0,.57,21.826S37.406,471.892,19.6,464.308A18.045,18.045,0,0,1,9.348,452.843L8,448.357.554,423.61a13.105,13.105,0,0,1,1.317-10.5l5.7-9.471a73.95,73.95,0,0,1-.89-16.236c.5-11.074,3.525-25.565,14.313-36.176l.072-.071A45.713,45.713,0,0,1,39.15,340.47c51.808-16.949,153.249-36,165.355-39.95a359.733,359.733,0,0,0,70.006-30.05C332.365,237.924,422.3,209.284,493.6,206.7c113.915-4.132,216.6,2.812,379.175,80.826,0,0,.249,1.78.641,4.949v.035c1.1,8.938,3.347,28.913,4.842,51.914C880.107,373.406,880.712,407.16,876.083,429.485Z" fill="#dee8f5"></path>
      <path d="M52.645,363.008c0,8.582-4.415,20.723-45.967,24.391.5-11.074,3.525-25.565,14.313-36.176l.072-.071C22.914,351.152,52.645,354.392,52.645,363.008Z" fill="#f3f5fd"></path>
      <path d="M878.255,344.422h-54.94c-4.522,0-14.99-3.845-10.789-22.645,4.166-18.8,60.887-29.3,60.887-29.3v.035C874.517,301.446,876.76,321.421,878.255,344.422Z" fill="#fd5d76"></path>
      <g opacity="0.76">
        <path d="M670.137,235.289l-5.3,53.8-170.381,7.086,8.012-81.147c3.667-.106,7.37-.178,11.109-.178C588.523,214.851,630.508,222.649,670.137,235.289Z" fill="#0f1011"></path>
      </g>
      <g opacity="0.76">
        <path d="M716,287.061l-42.976,1.709,5.02-50.846a271.788,271.788,0,0,1,45.077,20.331C736.579,265.875,731.451,286.455,716,287.061Z" fill="#0f1011"></path>
      </g>
      <rect x="422.301" y="324.912" width="39.709" height="6.27" rx="3.135" fill="#c1d8ed"></rect>
      <path d="M72.549,477.019S37.406,471.892,19.6,464.308A18.045,18.045,0,0,1,9.348,452.843L8,448.357c12.356,2.385,32.615,5.234,63.984,6.836A136.4,136.4,0,0,0,72.549,477.019Z" fill="#c1d8ed"></path>
      <path d="M619.4,451.6a143,143,0,0,0-1.14,25.422H245.381a161.327,161.327,0,0,0-2.279-21.15C363.522,454.8,516.248,452.843,619.4,451.6Z" fill="#c1d8ed"></path>
      <path d="M876.083,429.485c-1.6,7.9-3.916,14.385-7.014,18.729-21.364,29.731-76.162,28.805-76.162,28.805a156.116,156.116,0,0,0-2.207-31.76C824.027,442.054,858.494,437.069,876.083,429.485Z" fill="#c1d8ed"></path>
      <polygon points="480.655 462.745 477.772 462.648 488.84 294.836 491.724 294.934 480.655 462.745" fill="#c1d8ed"></polygon>
      <rect x="263.594" y="305.648" width="2.89" height="158.659" fill="#c1d8ed"></rect>
      <g opacity="0.76">
        <path d="M494.273,215.35,486.262,296.5l-219.873,9.08a3.861,3.861,0,0,1-2.35-7.05C294.981,277.768,379.123,221.225,494.273,215.35Z" fill="#0f1011"></path>
      </g>
      <path d="M259.186,299.833H276.6a19.158,19.158,0,0,1,19.158,19.158v0a5.921,5.921,0,0,1-5.921,5.921H259.186a5.921,5.921,0,0,1-5.921-5.921V305.754a5.921,5.921,0,0,1,5.921-5.921Z" fill="#c1d8ed"></path>
      <g>
        <circle cx="156.741" cy="442.963" r="70.173" fill="#0f1011"></circle>
        <path d="M156.741,398.063a44.9,44.9,0,1,1-44.9,44.9,44.951,44.951,0,0,1,44.9-44.9m0-4.719a49.62,49.62,0,1,0,49.62,49.619,49.619,49.619,0,0,0-49.62-49.619Z" fill="#f3f5fd"></path>
        <circle cx="156.741" cy="442.963" r="11.822" fill="#f3f5fd"></circle>
        <polygon points="170.437 395.703 159.101 442.963 154.382 442.963 143.045 395.703 170.437 395.703" fill="#f3f5fd"></polygon>
        <polygon points="143.045 490.223 154.382 442.963 159.101 442.963 170.437 490.223 143.045 490.223" fill="#f3f5fd"></polygon>
        <g>
          <polygon points="190.248 478.997 155.529 444.988 157.954 440.939 204.323 455.497 190.248 478.997" fill="#f3f5fd"></polygon>
          <polygon points="123.235 406.93 157.954 440.939 155.529 444.988 109.16 430.43 123.235 406.93" fill="#f3f5fd"></polygon>
        </g>
        <g>
          <polygon points="109.16 455.497 155.529 440.939 157.954 444.988 123.235 478.997 109.16 455.497" fill="#f3f5fd"></polygon>
          <polygon points="204.323 430.43 157.954 444.988 155.529 440.939 190.248 406.93 204.323 430.43" fill="#f3f5fd"></polygon>
        </g>
        <circle cx="156.741" cy="442.963" r="6.071" fill="#0f1011"></circle>
      </g>
      <g>
        <circle cx="705.049" cy="442.963" r="70.173" fill="#0f1011"></circle>
        <path d="M705.049,398.063a44.9,44.9,0,1,1-44.9,44.9,44.952,44.952,0,0,1,44.9-44.9m0-4.719a49.62,49.62,0,1,0,49.62,49.619,49.619,49.619,0,0,0-49.62-49.619Z" fill="#f3f5fd"></path>
        <circle cx="705.049" cy="442.963" r="11.822" fill="#f3f5fd"></circle>
        <polygon points="718.745 395.703 707.409 442.963 702.69 442.963 691.353 395.703 718.745 395.703" fill="#f3f5fd"></polygon>
        <polygon points="691.353 490.223 702.69 442.963 707.409 442.963 718.745 490.223 691.353 490.223" fill="#f3f5fd"></polygon>
        <g>
          <polygon points="738.556 478.997 703.837 444.988 706.262 440.939 752.631 455.497 738.556 478.997" fill="#f3f5fd"></polygon>
          <polygon points="671.543 406.93 706.262 440.939 703.837 444.988 657.468 430.43 671.543 406.93" fill="#f3f5fd"></polygon>
        </g>
        <g>
          <polygon points="657.468 455.497 703.837 440.939 706.262 444.988 671.543 478.997 657.468 455.497" fill="#f3f5fd"></polygon>
          <polygon points="752.631 430.43 706.262 444.988 703.837 440.939 738.556 406.93 752.631 430.43" fill="#f3f5fd"></polygon>
        </g>
        <circle cx="705.049" cy="442.963" r="6.071" fill="#0f1011"></circle>
      </g>
    </g>
    <polygon points="494.273 215.35 502.463 215.029 494.451 296.176 486.262 296.496 494.273 215.35" fill="#c1d8ed"></polygon>
    <polygon points="662.371 377.446 659.163 379.825 666.737 288.646 669.727 288.894 662.371 377.446" fill="#c1d8ed"></polygon>
    <polygon points="670.137 235.289 678.042 237.924 673.022 288.77 664.832 289.09 670.137 235.289" fill="#c1d8ed"></polygon>
  </g>
  <g>
    <path d="M595.57,78.1c-.01-.1-.01-.2-.01-.3,0-1.82.07-3.79.25-5.95l-15.97-2.97A58.358,58.358,0,0,1,579.73,79q-.09.87-.21,1.77c-.689,4.89-2.26,10.04-5.71,12.78h25C597.23,90.8,595.62,86.051,595.57,78.1Z" fill="#bb6751"></path>
    <path d="M604.878,63.682c-1.106,6.389-4.592,12.438-10.227,14.5-6.69,2.449-11.645,2.615-19.358,2.615-10.525,0-10.177-10.977-10.472-22.038-.3-11.106.586-23.018,4.746-26.888,8.3-7.725,32.673-2.833,35.637,10.087C606.737,48.642,605.931,57.6,604.878,63.682Z" fill="#bb6751"></path>
    <path d="M559.179,38.293s-4.31-.963-3.13-5.261c.782-2.851,4.435-2.217,4.435-2.217s-3.458-.634-3.458-3.653c0-1.9,1.461-5.124,5.871-3.282,5.173,2.161,11.074,1.883,15.56,1.129a51.71,51.71,0,0,1,7.708-1.088l.013,0v0a29.662,29.662,0,0,1,8.814,1.179c8.02,2.4,20.345,9.621,17.578,25.893-2.991,17.586-13.7,25.315-15.175,26.384-2.77,2.014-19.8,2.422-21.487.735-2.526-2.526-3.9-12.681-3.388-30.373-6.979-1.1-11.775-1.577-11.775-1.577s-5.8.218-5.8-4.022S559.179,38.293,559.179,38.293Z" fill="#0f1011"></path>
    <path d="M567.428,60.858a6.143,6.143,0,0,0,12.244,1,6.041,6.041,0,0,0-5.62-6.624C569.674,55.1,567.705,57.477,567.428,60.858Z" fill="#bb6751"></path>
  </g>
  <path d="M384.178,164.3l-.457-.22c2.958-.362,12.655-3.136,13.669-.711.386.922-2.344,2.336-4.4,3.248,4.514,1.981,14.714,1.679,20.441,1.316a1.887,1.887,0,0,1,1.48,3.189c-10.322,10.762-31.292,5.007-31.292,5.007l-5.292-1.112Z" fill="#bb6751"></path>
  <g>
    <path d="M284.149,37.449S292.4,64.412,297,78.4a4.467,4.467,0,0,1-4.137,5.863l-26.592.658a4.473,4.473,0,0,1-4.57-4.147l-2.728-37.751Z" fill="#0f1011"></path>
    <path d="M244.89,98.853s7.634-4.283,5.405-25.292l15.9-3.343s-1.344,18.916,6.879,24.716Z" fill="#bb6751"></path>
    <g opacity="0.15">
      <path d="M269.708,91.067,256.2,81.232l10.418-.358A28.767,28.767,0,0,0,269.708,91.067Z"></path>
    </g>
    <path d="M241.038,65.615c1.257,6.36,4.887,12.325,10.571,14.253a40.473,40.473,0,0,0,19.414,2.153c17.45-1.85,13.043-41.524,4.558-49.048S242.85,30.92,240.194,43.907C238.821,50.624,239.841,59.566,241.038,65.615Z" fill="#bb6751"></path>
    <g>
      <circle cx="265.898" cy="58.65" r="1.449" fill="#0f1011"></circle>
      <circle cx="277.304" cy="57.441" r="1.449" fill="#0f1011"></circle>
      <path d="M275.884,54.338a.682.682,0,0,1-.007-1.363l3.839-.043h.008a.682.682,0,0,1,.008,1.363l-3.84.043Z" fill="#0f1011"></path>
      <path d="M262.692,56.1a.682.682,0,0,1-.174-1.34l3.762-1a.681.681,0,1,1,.349,1.316l-3.761,1A.709.709,0,0,1,262.692,56.1Z" fill="#0f1011"></path>
      <path d="M266.84,70.042s5.361.437,9.079-.962c0,0,.054,3.522-4.169,3.971S266.84,70.042,266.84,70.042Z" fill="#fff"></path>
    </g>
    <g opacity="0.15">
      <path d="M272.52,66.532a.5.5,0,0,1-.17-.975l2.924-.975-2.171-4.54a.5.5,0,0,1,.9-.431l2.659,5.562-4,1.334A.5.5,0,0,1,272.52,66.532Z"></path>
    </g>
    <path d="M285.141,40.681s-3.072-20.643-36.125-14.736c-8.24,1.472-19.8,8.22-21.179,29.433-.627,9.73-3.747,18.967-6.157,24.825a4.471,4.471,0,0,0,4.237,6.183l23.323-.569a4.464,4.464,0,0,0,4.36-4.566c0-.065,0-.131-.008-.2-.267-3.965-.565-10.683-.593-20.961,1.067-5.894-2.265-9.947,2.457-8.716C272.992,55.939,283.842,41.049,285.141,40.681Z" fill="#0f1011"></path>
    <path d="M258.733,65.068a6.143,6.143,0,1,1-12.218,1.3,6.042,6.042,0,0,1,5.257-6.735c.067-.008.135-.015.2-.021C256.35,59.358,258.374,61.694,258.733,65.068Z" fill="#bb6751"></path>
  </g>
  <g>
    <path d="M311.454,497.257l-20.854-2.48c.939-7.893,2-17.373,2.072-18.928-.005.1,0,.182,0,.245h21C313.668,476.724,313.668,478.639,311.454,497.257Z" fill="#bb6751"></path>
    <path d="M227.778,499.767l-21-.068s.07-21.685.07-23.605h21C227.848,478.02,227.778,499.767,227.778,499.767Z" fill="#bb6751"></path>
    <path d="M282.206,490.626l37-.63c-1.738-44.032-1.844-90.219-2.386-134.357-7.221-47.574-10.023-103.919-18.935-151.152H218.385s-12.5,215.809-17.019,284.947l36.868,3.115c6.643-67.786,17.923-157.556,24.246-228.767,7.261,34.67,11.2,61.568,17.514,95.94C281.257,402.748,282.324,447.728,282.206,490.626Z" fill="#262626"></path>
    <path d="M253.307,507.89a4.11,4.11,0,0,0,4.076-4.428h0a4.109,4.109,0,0,0-2.659-3.529l-24.442-8.186a3.463,3.463,0,0,0-2.873.319,19.1,19.1,0,0,1-11.467,3.4,17.035,17.035,0,0,1-8.821-3.222,1.546,1.546,0,0,0-2.527,1.2V505.4a2.677,2.677,0,0,0,2.689,2.678Z" fill="#c1d8ed"></path>
    <path d="M337.04,507.89a4.108,4.108,0,0,0,4.076-4.428h0a4.108,4.108,0,0,0-2.658-3.529l-24.443-8.186a3.461,3.461,0,0,0-2.872.319,19.1,19.1,0,0,1-11.468,3.4,17.031,17.031,0,0,1-8.82-3.222,1.547,1.547,0,0,0-2.528,1.2V505.4a2.678,2.678,0,0,0,2.689,2.678Z" fill="#c1d8ed"></path>
  </g>
  <path d="M208.874,234.7l.219-.457c.363,2.958,3.137,12.655.712,13.669-.922.386-2.336-2.344-3.249-4.4-1.981,4.513-1.678,14.714-1.315,20.441a1.888,1.888,0,0,1-3.19,1.48c-10.762-10.322-5.007-31.292-5.007-31.292l1.113-5.292Z" fill="#bb6751"></path>
  <path d="M301.9,206.687c-4.19,9.63-82.415,14.74-83.515-2.2-.7-10.78,4.7-21.3,4.7-42.31s-17.493-47.574-1.743-63.324c4.571-4.57,11.071-7.339,20.69-7.349.72,5.61,34.347,5.765,34.606.265,1.3.02,2.31.04,2.94.07,33.18,1.43,18.587,38.608,18.267,66.348C297.45,190.647,306.22,196.767,301.9,206.687Z" fill="#f3f5fd"></path>
  <path d="M276.62,91.187c-.26,5.5-4.152,6.449-13.382,7.059-12.3.81-20.938-1.579-21.658-7.189h.03C253.72,91.057,269.56,91.077,276.62,91.187Z" fill="#bb6751"></path>
  <path d="M264.005,166.946c1.718,17.377,1,25.236.331,47.361a10.422,10.422,0,0,1-10.413,10.109H226.16a10.423,10.423,0,0,1-10.38-11.3c2.393-28.788,3.193-55.562,4.586-67.3,0,0-.663,19.368-3.011,30.48s-4.615,60.243-4.615,60.243-5.192,1.13-21.559,1.13c0,0,0-55.13,3.913-71.174s17.55-68.819,29.476-72.956c9.557-3.315,22.9-2.49,22.9-2.49S262,146.62,264.005,166.946Z" fill="#D4AF37"></path>
  <path d="M272.377,91.057s-8.372,48.5-8.372,75.889c0,9.358-.578,20.061-.148,46.821a10.424,10.424,0,0,0,10.807,10.252l20.523-.768a10.418,10.418,0,0,0,10-11.14c-1.365-19.447-4.175-59-4.835-64.39l16.937,23.8a12.644,12.644,0,0,0,9.09,5.254l59.58,5.334s1.043-10.38,2.724-22.2l-56.724-6.876s-29.719-53.881-39.2-59.045c-4.14-2.254-9.816-2.572-13.2-2.725C275.377,91.067,272.377,91.057,272.377,91.057Z" fill="#D4AF37"></path>
  <path d="M264.2,215.664a.251.251,0,0,1-.25-.249l-.2-48.468A.251.251,0,0,1,264,166.7h0a.25.25,0,0,1,.25.249l.2,48.468a.249.249,0,0,1-.249.251Z" fill="#D4AF37"></path>
  <g opacity="0.25">
    <path d="M264.2,215.664a.251.251,0,0,1-.25-.249l-.2-48.468A.251.251,0,0,1,264,166.7h0a.25.25,0,0,1,.25.249l.2,48.468a.249.249,0,0,1-.249.251Z" fill="#0f1011"></path>
  </g>
  <g>
    <g>
      <rect x="429.967" y="155.754" width="11.641" height="19.011" rx="2.703" transform="translate(169.069 -216.948) rotate(34.323)" fill="#AAA9AD"></rect>
      <g>
        <path d="M446.334,158.36l-6.27-1.76a2.827,2.827,0,0,0-3.48,1.96l-.72,2.56a2.825,2.825,0,0,0,1.96,3.49l1.57.44,3.121.88,1.569.44a2.832,2.832,0,0,0,3.49-1.96l.72-2.57A2.827,2.827,0,0,0,446.334,158.36Zm-.65,2.1a.952.952,0,0,1-.93.7,1.068,1.068,0,0,1-.25-.03l-4.32-1.21a.958.958,0,0,1,.26-1.88,1.068,1.068,0,0,1,.25.03l4.33,1.22A.94.94,0,0,1,445.684,160.46Z" fill="#1f2a37"></path>
        <path d="M441.426,171.061l.965-3.442-.328-.092,1.571-5.608-3.116-.873-4.456,15.906a1.618,1.618,0,0,0,1.121,1.994h0a1.618,1.618,0,0,0,2-1.121l.573-2.047.328.092.808-2.884-.328-.092.54-1.925Z" fill="#1f2a37"></path>
      </g>
      <ellipse cx="443.744" cy="153.606" rx="5.853" ry="4.141" transform="translate(177.939 540.713) rotate(-74.619)" fill="none" stroke="#1f2a37" stroke-miterlimit="10"></ellipse>
    </g>
    <path d="M437.156,153.88s7.861,4.047,16.34,4.047l2.739-13.565s-8.055-7.272-10.957-6.522c-2.4.62-.717,2.935,1.435,5.087" fill="#bb6751"></path>
    <path d="M437.156,153.88s7.861,4.047,16.34,4.047l2.739-13.565s-8.055-7.272-10.957-6.522c-2.4.62-.717,2.935,1.435,5.087" fill="#bb6751"></path>
    <g>
      <path d="M534.038,497.258c-2.213-18.618-2.213-20.534-2.213-21.164h21c0-.064,0-.146,0-.245.074,1.554,1.133,11.036,2.072,18.928Z" fill="#bb6751"></path>
      <path d="M617.714,499.768s-.07-21.747-.07-23.674h21c0,1.921.07,23.605.07,23.605Z" fill="#bb6751"></path>
      <path d="M592.186,507.89a4.11,4.11,0,0,1-4.077-4.428h0a4.11,4.11,0,0,1,2.659-3.529l24.443-8.186a3.461,3.461,0,0,1,2.872.319,19.1,19.1,0,0,0,11.468,3.4,17.035,17.035,0,0,0,8.82-3.222,1.546,1.546,0,0,1,2.527,1.2V505.4a2.677,2.677,0,0,1-2.688,2.678Z" fill="#c1d8ed"></path>
      <path d="M508.452,507.89a4.108,4.108,0,0,1-4.076-4.428h0a4.108,4.108,0,0,1,2.658-3.529l24.443-8.186a3.461,3.461,0,0,1,2.872.319,19.1,19.1,0,0,0,11.468,3.4,17.031,17.031,0,0,0,8.82-3.222,1.547,1.547,0,0,1,2.528,1.2V505.4a2.678,2.678,0,0,1-2.689,2.678Z" fill="#c1d8ed"></path>
      <path d="M607.258,492.549l36.868-1.115c-4.492-68.715-18.388-292.791-18.388-292.791l-76.077,4.7-.782,5.33-.267-.079c-8.273,43.854-14.18,89.915-20.762,134.357a151.249,151.249,0,0,0-1.634,21.875c-.079,40.946,0,86.462.075,127.174l36.995.63c-.118-42.921,2.9-89.834,4.206-132.886,6.23-34,10.03-69.558,16.614-103.911C590.454,327.154,600.607,424.677,607.258,492.549Z" fill="#262626"></path>
      <g>
        <path d="M648.128,234.677c0,2.98-1.574,12.942.957,13.654,1.518.427,3.31-7,3.31-7" fill="#bb6751"></path>
        <path d="M660.075,233.112s8.264,20.114-1.162,31.669a1.888,1.888,0,0,1-3.346-1.081c-.458-7.791-2.029-23.795-7.166-21.925V229.211" fill="#bb6751"></path>
      </g>
      <path d="M548.47,158.18c-.324-27.732-14.9-65.5,18.276-66.92,4.015-.173,23.606-.2,37.95-.2,9.636,0,17.547,2.957,22.115,7.526,15.752,15.751-3.582,42.591-3.582,63.6s9.5,30.418,8.8,41.195c-1.1,16.945-83.429,12.942-87.624,3.317C540.088,196.764,548.854,190.648,548.47,158.18Z" fill="#D4AF37"></path>
      <path d="M643.171,236.853l-9.1-61.305-22.567-61.362,20.465-7.526,22.953,62.415a10.873,10.873,0,0,1,.552,2.162l9.265,62.414Z" fill="#D4AF37"></path>
      <path d="M516.758,176.253a10.52,10.52,0,0,1-2.431-.285l-64.173-15.26,4.858-20.431,57.131,13.586,36.591-53.822L566.1,111.847,525.44,171.656A10.5,10.5,0,0,1,516.758,176.253Z" fill="#D4AF37"></path>
    </g>
    <path d="M448.634,144.67a3.517,3.517,0,0,0-2.747-4.213c-2.474-.513-6.094-.914-7.652.644-2.478,2.478-4.146,10.258-2.478,11.926s9.258,4.036,10.467.253C447.021,150.788,448.062,147.09,448.634,144.67Z" fill="#bb6751"></path>
  </g>
  <g>
    <path d="M247.467,91.057s16.6,34.986,16.6,77.116L239.7,115.243l5.919-7.435-8.3-5.87,1.56-10.791C241.58,90.6,247.467,91.057,247.467,91.057Z" fill="#D4AF37"></path>
    <path d="M272.377,91.057s-10.26,41.33-8.312,77.116l17.92-52.93-5.365-6.653,6.727-5.087L279.56,91.257Z" fill="#D4AF37"></path>
  </g>
  <g>
    <path d="M247.467,91.057s16.6,34.986,16.6,77.116L239.7,115.243l5.919-7.435-8.3-5.87,1.56-10.791C241.58,90.6,247.467,91.057,247.467,91.057Z" fill="#0f1011" opacity="0.25"></path>
    <path d="M272.377,91.057s-10.26,41.33-8.312,77.116l17.92-52.93-5.365-6.653,6.727-5.087L279.56,91.257Z" fill="#0f1011" opacity="0.25"></path>
  </g>
  <g>
    <circle cx="260.849" cy="173.74" r="1.565" fill="#0f1011" opacity="0.25"></circle>
    <circle cx="260.849" cy="186.33" r="1.565" fill="#0f1011" opacity="0.25"></circle>
    <circle cx="260.849" cy="198.92" r="1.565" fill="#0f1011" opacity="0.25"></circle>
  </g>
  <g>
    <path d="M460.661,250.416a1.325,1.325,0,0,1-2.492.032,11.875,11.875,0,0,0-2.54-4.247,14.687,14.687,0,0,0-5.773-3.253,1.331,1.331,0,0,1-.064-2.5,17,17,0,0,0,5.556-3.428,14.2,14.2,0,0,0,2.717-4.762,1.327,1.327,0,0,1,2.509.061,14.8,14.8,0,0,0,2.585,5.194,12.58,12.58,0,0,0,5.321,3.117,1.325,1.325,0,0,1-.008,2.509,14.257,14.257,0,0,0-5.412,3.06A11.022,11.022,0,0,0,460.661,250.416Z" fill="#fff"></path>
    <path d="M436.145,264.687a.913.913,0,0,1-1.717.022,8.191,8.191,0,0,0-1.75-2.926,10.112,10.112,0,0,0-3.977-2.241.917.917,0,0,1-.044-1.721,11.721,11.721,0,0,0,3.827-2.362,9.756,9.756,0,0,0,1.872-3.281.915.915,0,0,1,1.729.043,10.2,10.2,0,0,0,1.781,3.578,8.665,8.665,0,0,0,3.665,2.147.913.913,0,0,1,0,1.729,9.8,9.8,0,0,0-3.728,2.108A7.591,7.591,0,0,0,436.145,264.687Z" fill="#fff"></path>
  </g>
</svg>